<?xml version="1.0" encoding="UTF-8"?>
<svg width="401px" height="401px" viewBox="0 0 401 401" version="1.1" xmlns="http://www.w3.org/2000/svg" xmlns:xlink="http://www.w3.org/1999/xlink">
    <title>logo</title>
    <defs>
        <linearGradient x1="10.6077597%" y1="99.2877106%" x2="84.8503411%" y2="16.0137325%" id="linearGradient-1">
            <stop stop-color="#625CF6" stop-opacity="0.5" offset="0%"></stop>
            <stop stop-color="#6A64F6" stop-opacity="0.504999995" offset="0.249487208%"></stop>
            <stop stop-color="#8D88F8" stop-opacity="0.530799985" offset="1.53999999%"></stop>
            <stop stop-color="#ACA8FA" stop-opacity="0.559800029" offset="2.98999995%"></stop>
            <stop stop-color="#C6C4FC" stop-opacity="0.591899991" offset="4.60000001%"></stop>
            <stop stop-color="#DBDAFD" stop-opacity="0.628199995" offset="6.40999973%"></stop>
            <stop stop-color="#EBEBFE" stop-opacity="0.67049998" offset="8.51999968%"></stop>
            <stop stop-color="#F7F6FF" stop-opacity="0.722800016" offset="11.1400001%"></stop>
            <stop stop-color="#FDFDFF" stop-opacity="0.796199977" offset="14.8100004%"></stop>
            <stop stop-color="#FFFFFF" offset="25%"></stop>
        </linearGradient>
        <linearGradient x1="98.2399211%" y1="78.6540687%" x2="-23.9696324%" y2="29.6573848%" id="linearGradient-2">
            <stop stop-color="#625CF6" stop-opacity="0.5" offset="0%"></stop>
            <stop stop-color="#6A64F6" stop-opacity="0.504999995" offset="0.249487208%"></stop>
            <stop stop-color="#8D88F8" stop-opacity="0.530799985" offset="1.53999999%"></stop>
            <stop stop-color="#ACA8FA" stop-opacity="0.559800029" offset="2.98999995%"></stop>
            <stop stop-color="#C6C4FC" stop-opacity="0.591899991" offset="4.60000001%"></stop>
            <stop stop-color="#DBDAFD" stop-opacity="0.628199995" offset="6.40999973%"></stop>
            <stop stop-color="#EBEBFE" stop-opacity="0.67049998" offset="8.51999968%"></stop>
            <stop stop-color="#F7F6FF" stop-opacity="0.722800016" offset="11.1400001%"></stop>
            <stop stop-color="#FDFDFF" stop-opacity="0.796199977" offset="14.8100004%"></stop>
            <stop stop-color="#FFFFFF" offset="25%"></stop>
        </linearGradient>
        <linearGradient x1="49.7314067%" y1="0.0579536019%" x2="49.7298751%" y2="100.053322%" id="linearGradient-3">
            <stop stop-color="#625CF6" stop-opacity="0.5" offset="0%"></stop>
            <stop stop-color="#6A64F6" stop-opacity="0.504999995" offset="0.249487208%"></stop>
            <stop stop-color="#8D88F8" stop-opacity="0.530799985" offset="1.53999999%"></stop>
            <stop stop-color="#ACA8FA" stop-opacity="0.559800029" offset="2.98999995%"></stop>
            <stop stop-color="#C6C4FC" stop-opacity="0.591899991" offset="4.60000001%"></stop>
            <stop stop-color="#DBDAFD" stop-opacity="0.628199995" offset="6.40999973%"></stop>
            <stop stop-color="#EBEBFE" stop-opacity="0.67049998" offset="8.51999968%"></stop>
            <stop stop-color="#F7F6FF" stop-opacity="0.722800016" offset="11.1400001%"></stop>
            <stop stop-color="#FDFDFF" stop-opacity="0.796199977" offset="14.8100004%"></stop>
            <stop stop-color="#FFFFFF" offset="25%"></stop>
        </linearGradient>
        <linearGradient x1="92.8886116%" y1="24.5076751%" x2="7.13379681%" y2="75.4822957%" id="linearGradient-4">
            <stop stop-color="#625CF6" offset="0%"></stop>
            <stop stop-color="#6357F5" offset="16.3200006%"></stop>
            <stop stop-color="#6648F2" offset="36.2699986%"></stop>
            <stop stop-color="#6A2FED" offset="58.0299973%"></stop>
            <stop stop-color="#6B29EC" offset="62.470001%"></stop>
        </linearGradient>
        <linearGradient x1="0.0114243863%" y1="49.9954879%" x2="100.009525%" y2="49.9954879%" id="linearGradient-5">
            <stop stop-color="#625CF6" offset="0%"></stop>
            <stop stop-color="#625CF6" stop-opacity="0" offset="40.0000006%"></stop>
        </linearGradient>
        <linearGradient x1="75.0092983%" y1="5.4138414%" x2="25.010547%" y2="94.5751471%" id="linearGradient-6">
            <stop stop-color="#A7A5FC" offset="0%"></stop>
            <stop stop-color="#918DFA" stop-opacity="0.780499995" offset="8.78000036%"></stop>
            <stop stop-color="#7772F8" stop-opacity="0.476500005" offset="20.9399998%"></stop>
            <stop stop-color="#6862F6" stop-opacity="0.206400007" offset="31.7400008%"></stop>
            <stop stop-color="#625CF6" stop-opacity="0" offset="40.0000006%"></stop>
        </linearGradient>
    </defs>
    <g id="IDE-端插件优化" stroke="none" stroke-width="1" fill="none" fill-rule="evenodd">
        <g id="Artboard" transform="translate(-676.000000, -515.000000)" fill-rule="nonzero">
            <g id="Group" transform="translate(676.730000, 515.880000)">
                <g transform="translate(36.704321, 9.525871)" fill="#FFFFFF" id="Path">
                    <polygon points="108.883222 0 136.12599 47.6228647 108.883222 95.2451379 326.678901 95.2451379 299.465426 142.838128 87.1183003 142.838128 57.1512553 90.4535976"></polygon>
                    <polygon points="0 95.2153854 54.4562431 95.2153854 160.585866 280.943404 130.677408 333.32823 27.2135042 333.298651 54.4562431 285.676378 108.912486 285.676378"></polygon>
                    <polygon points="136.096643 333.298535 163.33947 380.9214 272.222604 190.460408 299.436079 238.053693 353.892322 238.053693 302.189649 147.600096 242.284852 147.629704"></polygon>
                </g>
                <g transform="translate(36.704321, 9.525871)" id="Path">
                    <polygon fill="url(#linearGradient-1)" points="108.883222 0 136.12599 47.6228647 108.883222 95.2451379 326.678901 95.2451379 299.465426 142.838128 87.1183003 142.838128 57.1512553 90.4535976"></polygon>
                    <polygon fill="url(#linearGradient-2)" points="27.2135042 333.29868 54.4562431 285.676407 108.883193 285.705986 0 95.2449935 54.4269498 95.2449935 160.585866 280.943433 130.677408 333.328259"></polygon>
                    <polygon fill="url(#linearGradient-3)" points="353.921644 238.083272 299.465401 238.083272 272.251926 190.460408 163.339469 380.9214 136.125965 333.328115 242.284881 147.629704 302.189678 147.600096"></polygon>
                </g>
                <path d="M398.769681,242.816831 L352.515562,161.887747 L347.067008,152.363529 L371.556207,109.532796 C372.405712,108.053834 372.815818,106.42668 372.815818,104.770243 C372.815818,103.11351 372.405712,101.486652 371.556207,100.007691 L344.342732,52.3848259 C343.493226,50.9058641 342.321494,49.7229905 340.886122,48.8944761 C339.480044,48.0662575 337.839619,47.6228647 336.169901,47.6228647 L232.705676,47.6228647 L208.187184,4.76258227 C206.517466,1.80464986 203.383083,0 200.014354,0 L145.558111,0 C143.888393,0 142.247968,0.443398654 140.842182,1.27170598 C139.435811,2.10001035 138.234786,3.28288102 137.385573,4.76184279 L91.1021604,85.7206241 L85.6536067,95.2152629 L36.6459172,95.2152629 C34.9761992,95.2152629 33.3357744,95.6586556 31.9296961,96.48717 C30.5236177,97.3153886 29.3225925,98.4982622 28.4730868,99.977224 L1.25959136,147.600089 C0.410059319,149.079051 0,150.706204 0,152.362641 C0,154.019374 0.410150128,155.646232 1.25959136,157.125194 L52.9915782,247.608371 L28.4730868,290.468683 C27.6235518,291.947645 27.2135042,293.574503 27.2135042,295.231236 C27.2135042,296.886785 27.6236397,298.513643 28.4730868,299.992605 L55.6865617,347.618132 C56.5360674,349.097094 57.7370926,350.277305 59.143171,351.105524 C60.5492494,351.933743 62.1896741,352.377431 63.8593922,352.377431 L167.294031,352.377431 L191.812523,395.237743 C193.482241,398.195667 196.616624,400 199.985353,400 L254.441596,400 C256.111315,400 257.751739,399.559269 259.157818,398.731051 C260.563896,397.902832 261.764921,396.719663 262.614427,395.240701 L314.346393,304.75782 L363.354083,304.75782 C365.053094,304.75782 366.664226,304.284552 368.070304,303.485913 C369.476382,302.657694 370.677408,301.474525 371.526913,299.995563 L398.740388,252.371811 C399.589894,250.892849 400,249.265695 400,247.608963 C400,245.952525 399.619187,244.295792 398.769681,242.816831 Z M145.587697,9.52587444 L172.830172,57.1488575 L145.587697,104.741847 L363.383376,104.741847 L336.169901,152.335133 L123.822776,152.335133 L93.8554376,99.9506027 L145.587697,9.52587444 Z M167.381911,342.852917 L63.9472721,342.823338 L91.1897473,295.201656 L145.64599,295.201656 L36.7335042,104.741256 L91.1897473,104.741256 L118.403515,152.36412 L197.348956,290.469275 L167.381911,342.852917 Z M336.140608,247.579383 L308.927133,199.956519 L200.043647,390.416328 L172.800879,342.793759 L200.043647,295.200769 L278.989088,157.125194 L338.894178,157.095615 L390.596851,247.549212 L336.140608,247.549212 L336.140608,247.579383 Z" id="Shape" fill="url(#linearGradient-4)"></path>
                <path d="M398.769681,242.816831 L352.515562,161.887747 L347.067008,152.363529 L371.556207,109.532796 C372.405712,108.053834 372.815818,106.42668 372.815818,104.770243 C372.815818,103.11351 372.405712,101.486652 371.556207,100.007691 L344.342732,52.3848259 C343.493226,50.9058641 342.321494,49.7229905 340.886122,48.8944761 C339.480044,48.0662575 337.839619,47.6228647 336.169901,47.6228647 L232.705676,47.6228647 L208.187184,4.76258227 C206.517466,1.80464986 203.383083,0 200.014354,0 L145.558111,0 C143.888393,0 142.247968,0.443398654 140.842182,1.27170598 C139.435811,2.10001035 138.234786,3.28288102 137.385573,4.76184279 L91.1021604,85.7206241 L85.6536067,95.2152629 L36.6459172,95.2152629 C34.9761992,95.2152629 33.3357744,95.6586556 31.9296961,96.48717 C30.5236177,97.3153886 29.3225925,98.4982622 28.4730868,99.977224 L1.25959136,147.600089 C0.410059319,149.079051 0,150.706204 0,152.362641 C0,154.019374 0.410150128,155.646232 1.25959136,157.125194 L52.9915782,247.608371 L28.4730868,290.468683 C27.6235518,291.947645 27.2135042,293.574503 27.2135042,295.231236 C27.2135042,296.886785 27.6236397,298.513643 28.4730868,299.992605 L55.6865617,347.618132 C56.5360674,349.097094 57.7370926,350.277305 59.143171,351.105524 C60.5492494,351.933743 62.1896741,352.377431 63.8593922,352.377431 L167.294031,352.377431 L191.812523,395.237743 C193.482241,398.195667 196.616624,400 199.985353,400 L254.441596,400 C256.111315,400 257.751739,399.559269 259.157818,398.731051 C260.563896,397.902832 261.764921,396.719663 262.614427,395.240701 L314.346393,304.75782 L363.354083,304.75782 C365.053094,304.75782 366.664226,304.284552 368.070304,303.485913 C369.476382,302.657694 370.677408,301.474525 371.526913,299.995563 L398.740388,252.371811 C399.589894,250.892849 400,249.265695 400,247.608963 C400,245.952525 399.619187,244.295792 398.769681,242.816831 Z M145.587697,9.52587444 L172.830172,57.1488575 L145.587697,104.741847 L363.383376,104.741847 L336.169901,152.335133 L123.822776,152.335133 L93.8554376,99.9506027 L145.587697,9.52587444 Z M167.381911,342.852917 L63.9472721,342.823338 L91.1897473,295.201656 L145.64599,295.201656 L36.7335042,104.741256 L91.1897473,104.741256 L118.403515,152.36412 L197.348956,290.469275 L167.381911,342.852917 Z M336.140608,247.579383 L308.927133,199.956519 L200.043647,390.416328 L172.800879,342.793759 L200.043647,295.200769 L278.989088,157.125194 L338.894178,157.095615 L390.596851,247.549212 L336.140608,247.549212 L336.140608,247.579383 Z" id="Shape" fill="url(#linearGradient-5)"></path>
                <path d="M398.769681,242.816831 L352.515562,161.887747 L347.067008,152.363529 L371.556207,109.532796 C372.405712,108.053834 372.815818,106.42668 372.815818,104.770243 C372.815818,103.11351 372.405712,101.486652 371.556207,100.007691 L344.342732,52.3848259 C343.493226,50.9058641 342.321494,49.7229905 340.886122,48.8944761 C339.480044,48.0662575 337.839619,47.6228647 336.169901,47.6228647 L232.705676,47.6228647 L208.187184,4.76258227 C206.517466,1.80464986 203.383083,0 200.014354,0 L145.558111,0 C143.888393,0 142.247968,0.443398654 140.842182,1.27170598 C139.435811,2.10001035 138.234786,3.28288102 137.385573,4.76184279 L91.1021604,85.7206241 L85.6536067,95.2152629 L36.6459172,95.2152629 C34.9761992,95.2152629 33.3357744,95.6586556 31.9296961,96.48717 C30.5236177,97.3153886 29.3225925,98.4982622 28.4730868,99.977224 L1.25959136,147.600089 C0.410059319,149.079051 0,150.706204 0,152.362641 C0,154.019374 0.410150128,155.646232 1.25959136,157.125194 L52.9915782,247.608371 L28.4730868,290.468683 C27.6235518,291.947645 27.2135042,293.574503 27.2135042,295.231236 C27.2135042,296.886785 27.6236397,298.513643 28.4730868,299.992605 L55.6865617,347.618132 C56.5360674,349.097094 57.7370926,350.277305 59.143171,351.105524 C60.5492494,351.933743 62.1896741,352.377431 63.8593922,352.377431 L167.294031,352.377431 L191.812523,395.237743 C193.482241,398.195667 196.616624,400 199.985353,400 L254.441596,400 C256.111315,400 257.751739,399.559269 259.157818,398.731051 C260.563896,397.902832 261.764921,396.719663 262.614427,395.240701 L314.346393,304.75782 L363.354083,304.75782 C365.053094,304.75782 366.664226,304.284552 368.070304,303.485913 C369.476382,302.657694 370.677408,301.474525 371.526913,299.995563 L398.740388,252.371811 C399.589894,250.892849 400,249.265695 400,247.608963 C400,245.952525 399.619187,244.295792 398.769681,242.816831 Z M145.587697,9.52587444 L172.830172,57.1488575 L145.587697,104.741847 L363.383376,104.741847 L336.169901,152.335133 L123.822776,152.335133 L93.8554376,99.9506027 L145.587697,9.52587444 Z M167.381911,342.852917 L63.9472721,342.823338 L91.1897473,295.201656 L145.64599,295.201656 L36.7335042,104.741256 L91.1897473,104.741256 L118.403515,152.36412 L197.348956,290.469275 L167.381911,342.852917 Z M336.140608,247.579383 L308.927133,199.956519 L200.043647,390.416328 L172.800879,342.793759 L200.043647,295.200769 L278.989088,157.125194 L338.894178,157.095615 L390.596851,247.549212 L336.140608,247.549212 L336.140608,247.579383 Z" id="Shape" fill="url(#linearGradient-6)"></path>
            </g>
        </g>
    </g>
</svg>